<svg width="34" height="34" viewBox="0 0 34 34" fill="none" xmlns="http://www.w3.org/2000/svg">
<path d="M24.4825 1H9.04194C4.77814 1 1.32166 4.58172 1.32166 9V25C1.32166 29.4183 4.77814 33 9.04194 33H24.4825C28.7463 33 32.2028 29.4183 32.2028 25V9C32.2028 4.58172 28.7463 1 24.4825 1Z" stroke="#1B2021" stroke-opacity="0.7" stroke-width="2" stroke-linecap="round" stroke-linejoin="round"/>
<path d="M22.9382 15.9925C23.1288 17.3241 22.9093 18.684 22.311 19.8789C21.7127 21.0738 20.766 22.0427 19.6056 22.648C18.4452 23.2532 17.1302 23.4638 15.8476 23.25C14.565 23.0361 13.3802 22.4086 12.4616 21.4567C11.543 20.5049 10.9374 19.2771 10.731 17.948C10.5246 16.619 10.7279 15.2563 11.312 14.0539C11.8961 12.8514 12.8311 11.8705 13.9842 11.2505C15.1373 10.6305 16.4497 10.403 17.7348 10.6005C19.0456 10.8019 20.2591 11.4348 21.1961 12.4058C22.1331 13.3767 22.7439 14.6342 22.9382 15.9925Z" stroke="#1B2021" stroke-opacity="0.7" stroke-width="2" stroke-linecap="round" stroke-linejoin="round"/>
<path d="M25.2543 8.20312H25.2547" stroke="#1B2021" stroke-opacity="0.7" stroke-width="2" stroke-linecap="round" stroke-linejoin="round"/>
</svg>
