<svg width="32" height="32" viewBox="0 0 32 32" fill="none" xmlns="http://www.w3.org/2000/svg">
<path d="M19.5153 12.4443C20.8803 12.4443 22.1893 13.0062 23.1545 14.0064C24.1197 15.0065 24.6619 16.363 24.6619 17.7774V23.9993H21.2308V17.7774C21.2308 17.3059 21.0501 16.8538 20.7284 16.5204C20.4066 16.187 19.9703 15.9997 19.5153 15.9997C19.0603 15.9997 18.624 16.187 18.3022 16.5204C17.9805 16.8538 17.7998 17.3059 17.7998 17.7774V23.9993H14.3687V17.7774C14.3687 16.363 14.9109 15.0065 15.8761 14.0064C16.8413 13.0062 18.1503 12.4443 19.5153 12.4443V12.4443Z" stroke="#1B2021" stroke-opacity="0.7" stroke-width="2" stroke-linecap="round" stroke-linejoin="round"/>
<path d="M10.9368 13.3345H7.50574V24.0006H10.9368V13.3345Z" stroke="#1B2021" stroke-opacity="0.7" stroke-width="2" stroke-linecap="round" stroke-linejoin="round"/>
<path d="M9.22127 10.6665C10.1687 10.6665 10.9368 9.87057 10.9368 8.88877C10.9368 7.90698 10.1687 7.11108 9.22127 7.11108C8.27381 7.11108 7.50574 7.90698 7.50574 8.88877C7.50574 9.87057 8.27381 10.6665 9.22127 10.6665Z" stroke="#1B2021" stroke-opacity="0.7" stroke-width="2" stroke-linecap="round" stroke-linejoin="round"/>
<rect x="1.64331" y="1" width="28.8811" height="30" rx="3" stroke="#1B2021" stroke-opacity="0.7" stroke-width="2"/>
</svg>
