<svg width="20" height="20" viewBox="0 0 20 20" fill="none" xmlns="http://www.w3.org/2000/svg">
<path d="M14.4103 11.8897C14.1685 11.7654 12.9637 11.1752 12.7396 11.0954C12.5155 11.011 12.3513 10.9711 12.1894 11.2196C12.0252 11.4659 11.5593 12.0139 11.4128 12.1803C11.2708 12.3445 11.1266 12.3645 10.8848 12.2424C9.44703 11.5236 8.50407 10.96 7.55667 9.33369C7.30596 8.90104 7.80739 8.9321 8.27554 7.99802C8.35541 7.83384 8.31548 7.69406 8.25335 7.56981C8.19123 7.44556 7.70311 6.24301 7.49899 5.75268C7.30152 5.27565 7.0974 5.34221 6.94874 5.33334C6.80675 5.32446 6.64478 5.32446 6.48059 5.32446C6.31641 5.32446 6.05238 5.38659 5.82829 5.62843C5.6042 5.87471 4.97186 6.4671 4.97186 7.66965C4.97186 8.8722 5.84826 10.037 5.96807 10.2012C6.09232 10.3654 7.69202 12.8326 10.1481 13.8954C11.7012 14.5654 12.3092 14.6231 13.0857 14.5078C13.5583 14.4368 14.5323 13.9176 14.7342 13.3429C14.9361 12.7705 14.9361 12.2802 14.8762 12.1781C14.8163 12.0694 14.6522 12.0073 14.4103 11.8897Z" fill="#1B2021" fill-opacity="0.7"/>
<path d="M19.1078 6.08818C18.6063 4.89672 17.8875 3.8273 16.9711 2.90875C16.0548 1.99241 14.9854 1.27133 13.7917 0.772116C12.5714 0.259591 11.2757 0 9.94 0H9.89563C8.55108 0.00665617 7.24869 0.272903 6.02396 0.796521C4.84138 1.30239 3.78083 2.02126 2.87337 2.93759C1.96591 3.85392 1.2537 4.91891 0.761148 6.10593C0.250842 7.3351 -0.00653029 8.64192 0.000125874 9.98647C0.00678204 11.5263 0.37509 13.055 1.06511 14.4217V17.7942C1.06511 18.3577 1.52217 18.8148 2.08572 18.8148H5.4604C6.82713 19.5048 8.35583 19.8731 9.89563 19.8798H9.94222C11.2712 19.8798 12.5603 19.6224 13.774 19.1187C14.961 18.624 16.0282 17.914 16.9423 17.0065C17.8586 16.0991 18.5797 15.0385 19.0834 13.8559C19.607 12.6312 19.8732 11.3288 19.8799 9.98425C19.8865 8.63305 19.6247 7.32178 19.1078 6.08818ZM15.7553 15.8062C14.1999 17.346 12.1365 18.1935 9.94 18.1935H9.90228C8.56439 18.1869 7.23538 17.8541 6.06168 17.2284L5.8753 17.1285H2.75134V14.0046L2.6515 13.8182C2.02582 12.6445 1.69301 11.3155 1.68635 9.9776C1.67748 7.76553 2.52281 5.68881 4.0737 4.12461C5.62237 2.56041 7.69244 1.6951 9.9045 1.68623H9.94222C11.0516 1.68623 12.1277 1.90145 13.1416 2.32744C14.1312 2.74234 15.0187 3.33918 15.7819 4.10242C16.5429 4.86344 17.142 5.75315 17.5569 6.7427C17.9873 7.76775 18.2025 8.85492 18.1981 9.9776C18.1848 12.1874 17.3173 14.2575 15.7553 15.8062Z" fill="#1B2021" fill-opacity="0.7"/>
</svg>
